<?xml version="1.0" encoding="UTF-8"?>
<svg xmlns="http://www.w3.org/2000/svg" xmlns:xlink="http://www.w3.org/1999/xlink" width="187.5px" height="187.499995px" viewBox="0 0 187.5 187.499995" version="1.2">
<defs>
<clipPath id="clip1">
  <path d="M 36.890625 59 L 77 59 L 77 128 L 36.890625 128 Z M 36.890625 59 "/>
</clipPath>
<clipPath id="clip2">
  <path d="M 149.742188 83.074219 L 95.308594 83.074219 L 95.308594 105.484375 L 126.640625 105.484375 C 123.71875 119.722656 111.503906 127.894531 95.308594 127.894531 C 76.1875 127.894531 60.789062 112.601562 60.789062 93.621094 C 60.789062 74.636719 76.1875 59.347656 95.308594 59.347656 C 103.539062 59.347656 110.972656 62.246094 116.816406 66.992188 L 133.8125 50.117188 C 123.453125 41.152344 110.175781 35.617188 95.308594 35.617188 C 62.910156 35.617188 36.886719 61.453125 36.886719 93.621094 C 36.886719 125.785156 62.910156 151.621094 95.308594 151.621094 C 124.515625 151.621094 151.070312 130.53125 151.070312 93.621094 C 151.070312 90.191406 150.539062 86.5 149.742188 83.074219 Z M 149.742188 83.074219 "/>
</clipPath>
<clipPath id="clip3">
  <path d="M 36.890625 35.183594 L 150.886719 35.183594 L 150.886719 94 L 36.890625 94 Z M 36.890625 35.183594 "/>
</clipPath>
<clipPath id="clip4">
  <path d="M 149.742188 83.074219 L 95.308594 83.074219 L 95.308594 105.484375 L 126.640625 105.484375 C 123.71875 119.722656 111.503906 127.894531 95.308594 127.894531 C 76.1875 127.894531 60.789062 112.601562 60.789062 93.621094 C 60.789062 74.636719 76.1875 59.347656 95.308594 59.347656 C 103.539062 59.347656 110.972656 62.246094 116.816406 66.992188 L 133.8125 50.117188 C 123.453125 41.152344 110.175781 35.617188 95.308594 35.617188 C 62.910156 35.617188 36.886719 61.453125 36.886719 93.621094 C 36.886719 125.785156 62.910156 151.621094 95.308594 151.621094 C 124.515625 151.621094 151.070312 130.53125 151.070312 93.621094 C 151.070312 90.191406 150.539062 86.5 149.742188 83.074219 Z M 149.742188 83.074219 "/>
</clipPath>
<clipPath id="clip5">
  <path d="M 36.890625 35.183594 L 150.886719 35.183594 L 150.886719 151.621094 L 36.890625 151.621094 Z M 36.890625 35.183594 "/>
</clipPath>
<clipPath id="clip6">
  <path d="M 149.742188 83.074219 L 95.308594 83.074219 L 95.308594 105.484375 L 126.640625 105.484375 C 123.71875 119.722656 111.503906 127.894531 95.308594 127.894531 C 76.1875 127.894531 60.789062 112.601562 60.789062 93.621094 C 60.789062 74.636719 76.1875 59.347656 95.308594 59.347656 C 103.539062 59.347656 110.972656 62.246094 116.816406 66.992188 L 133.8125 50.117188 C 123.453125 41.152344 110.175781 35.617188 95.308594 35.617188 C 62.910156 35.617188 36.886719 61.453125 36.886719 93.621094 C 36.886719 125.785156 62.910156 151.621094 95.308594 151.621094 C 124.515625 151.621094 151.070312 130.53125 151.070312 93.621094 C 151.070312 90.191406 150.539062 86.5 149.742188 83.074219 Z M 149.742188 83.074219 "/>
</clipPath>
<clipPath id="clip7">
  <path d="M 66 59 L 150.886719 59 L 150.886719 151.621094 L 66 151.621094 Z M 66 59 "/>
</clipPath>
<clipPath id="clip8">
  <path d="M 149.742188 83.074219 L 95.308594 83.074219 L 95.308594 105.484375 L 126.640625 105.484375 C 123.71875 119.722656 111.503906 127.894531 95.308594 127.894531 C 76.1875 127.894531 60.789062 112.601562 60.789062 93.621094 C 60.789062 74.636719 76.1875 59.347656 95.308594 59.347656 C 103.539062 59.347656 110.972656 62.246094 116.816406 66.992188 L 133.8125 50.117188 C 123.453125 41.152344 110.175781 35.617188 95.308594 35.617188 C 62.910156 35.617188 36.886719 61.453125 36.886719 93.621094 C 36.886719 125.785156 62.910156 151.621094 95.308594 151.621094 C 124.515625 151.621094 151.070312 130.53125 151.070312 93.621094 C 151.070312 90.191406 150.539062 86.5 149.742188 83.074219 Z M 149.742188 83.074219 "/>
</clipPath>
</defs>
<g id="surface1">
<g clip-path="url(#clip1)" clip-rule="nonzero">
<g clip-path="url(#clip2)" clip-rule="nonzero">
<path style=" stroke:none;fill-rule:nonzero;fill:rgb(98.429871%,73.728943%,1.959229%);fill-opacity:1;" d="M 31.578125 127.894531 L 31.578125 59.347656 L 76.71875 93.621094 Z M 31.578125 127.894531 "/>
</g>
</g>
<g clip-path="url(#clip3)" clip-rule="nonzero">
<g clip-path="url(#clip4)" clip-rule="nonzero">
<path style=" stroke:none;fill-rule:nonzero;fill:rgb(91.758728%,26.269531%,20.779419%);fill-opacity:1;" d="M 31.578125 59.347656 L 76.71875 93.621094 L 95.308594 77.539062 L 159.035156 67.253906 L 159.035156 30.34375 L 31.578125 30.34375 Z M 31.578125 59.347656 "/>
</g>
</g>
<g clip-path="url(#clip5)" clip-rule="nonzero">
<g clip-path="url(#clip6)" clip-rule="nonzero">
<path style=" stroke:none;fill-rule:nonzero;fill:rgb(20.388794%,65.879822%,32.548523%);fill-opacity:1;" d="M 31.578125 127.894531 L 111.238281 67.253906 L 132.21875 69.890625 L 159.035156 30.34375 L 159.035156 156.894531 L 31.578125 156.894531 Z M 31.578125 127.894531 "/>
</g>
</g>
<g clip-path="url(#clip7)" clip-rule="nonzero">
<g clip-path="url(#clip8)" clip-rule="nonzero">
<path style=" stroke:none;fill-rule:nonzero;fill:rgb(25.878906%,52.159119%,95.689392%);fill-opacity:1;" d="M 159.035156 156.894531 L 76.71875 93.621094 L 66.097656 85.710938 L 159.035156 59.347656 Z M 159.035156 156.894531 "/>
</g>
</g>
</g>
</svg>
